<?xml version="1.0" encoding="UTF-8"?>
<svg id="Layer_1" data-name="Layer 1" xmlns="http://www.w3.org/2000/svg" viewBox="0 0 152.17 182">
  <defs>
    <style>
      .cls-1 {
        stroke: #fff;
        stroke-miterlimit: 10;
      }
    </style>
  </defs>
  <path class="cls-1" d="M142.36,81.79c-6.21-4.8-14.28-7.19-24.23-7.19h-45.21c-1.6-5.53-2.42-11.59-2.42-18.17,0-7.74.83-14.75,2.48-21.04.97-3.67,2.15-6.94,3.55-9.86.47,1.07.92,2.18,1.35,3.34,1.61,4.35,2.81,8.38,3.61,12.09h6.18l-.51-28.5c1.13-.81,2.31-1.55,3.54-2.19,4.19-2.16,8.72-3.24,13.59-3.24,4.26,0,8.05.97,11.36,2.9,3.31,1.93,6.17,4.61,8.58,8.02,2.16,3.01,4.04,6.69,5.64,11.04,1.61,4.35,2.81,8.38,3.61,12.09h6.18l-.68-40.59h-6.03l-3.09,7.59c-3.86-2.36-7.93-4.19-12.19-5.5-4.27-1.31-9.03-1.96-14.3-1.96-5.74,0-11.2.91-16.38,2.7l-.11-2.49h-6.03l-2.62,6.52c-.23.14-.47.28-.7.42-3.77-2.26-7.72-4.04-11.86-5.31-4.27-1.31-9.03-1.96-14.3-1.96-7.08,0-13.73,1.36-19.95,4.07-6.22,2.72-11.62,6.56-16.19,11.54-4.62,5.03-8.23,11.02-10.84,17.98-2.61,6.96-3.91,14.72-3.91,23.26s1.33,16.22,3.99,23.03c2.66,6.81,6.22,12.58,10.69,17.3,4.52,4.73,9.7,8.34,15.55,10.86,5.85,2.51,11.96,3.77,18.33,3.77,9.84,0,18.32-2.27,25.45-6.82.35-.22.7-.46,1.04-.7,2.27,1.49,4.66,2.79,7.18,3.88.47.2.95.38,1.43.57v57.72c0,1.96-.34,3.57-1.02,4.82-.68,1.26-1.77,2.21-3.28,2.86-.9.4-2.5.73-4.78.98-2.29.25-4.03.43-5.24.53v5.35h45.89v-5.35c-1.91-.05-4.01-.23-6.29-.53-2.29-.3-3.88-.63-4.78-.98-1.81-.7-3-1.72-3.58-3.05-.58-1.33-.87-2.87-.87-4.63v-32.4h11.98c5.12,0,9.97-.65,14.54-1.96,4.57-1.31,8.77-3.37,12.58-6.18,3.87-2.81,6.89-6.37,9.08-10.66,2.18-4.29,3.28-9.23,3.28-14.81,0-7.99-3.1-14.38-9.31-19.18ZM110.83,80.77c4.27,0,7.84.65,10.7,1.96,2.86,1.31,5.17,3.14,6.93,5.5.99,1.32,1.79,2.8,2.43,4.39-1.28,1.53-2.66,2.98-4.16,4.29-2.51,2.11-5.47,3.8-8.88,5.09-3.41,1.28-7.15,1.92-11.21,1.92-2.23,0-4.37-.22-6.43-.63v-22.53h10.62ZM83.4,85.06c.06.16.1.34.15.51-.68,1.27-1.4,2.5-2.2,3.69-.25.37-.52.72-.78,1.08-.02-.02-.03-.04-.05-.06-2.15-2.89-3.96-6.1-5.45-9.62,1.59.28,3.18.69,4.79,1.24,1.86.7,3.04,1.76,3.54,3.16ZM65.85,101.88c-3.41,1.28-7.15,1.92-11.21,1.92-5.42,0-10.33-1.2-14.72-3.62-4.39-2.41-8.19-5.76-11.4-10.03-3.21-4.32-5.68-9.34-7.41-15.04-1.73-5.71-2.6-11.98-2.6-18.81,0-7.74.83-14.75,2.48-21.04,1.66-6.28,3.94-11.46,6.85-15.53,3.06-4.22,6.69-7.41,10.87-9.58,4.19-2.16,8.72-3.24,13.59-3.24,4.26,0,8.05.97,11.36,2.9,2.03,1.19,3.89,2.65,5.58,4.4-.68.66-1.34,1.33-1.99,2.03-4.62,5.03-8.23,11.02-10.84,17.98-2.61,6.96-3.91,14.72-3.91,23.26s1.33,16.22,3.99,23.03c2.66,6.81,6.22,12.58,10.69,17.3.79.82,1.6,1.6,2.43,2.36-1.19.63-2.43,1.21-3.76,1.71ZM132.15,111.7c-.55,2.59-1.68,5.09-3.39,7.5-1.71,2.51-4.26,4.61-7.65,6.29-3.39,1.68-7.8,2.52-13.22,2.52h-7.69v-15.59c.29,0,.57.02.86.02,9.84,0,18.32-2.27,25.45-6.82,2.21-1.41,4.29-3.11,6.23-5.11.16,1.42.24,2.82.24,4.22,0,2.06-.28,4.38-.83,6.97Z"/>
</svg>